<?xml version="1.0" encoding="UTF-8" standalone="no"?>
<!-- Created with Inkscape (http://www.inkscape.org/) -->

<svg
   xmlns:dc="http://purl.org/dc/elements/1.1/"
   xmlns:cc="http://creativecommons.org/ns#"
   xmlns:rdf="http://www.w3.org/1999/02/22-rdf-syntax-ns#"
   xmlns:svg="http://www.w3.org/2000/svg"
   xmlns="http://www.w3.org/2000/svg"
   xmlns:sodipodi="http://sodipodi.sourceforge.net/DTD/sodipodi-0.dtd"
   xmlns:inkscape="http://www.inkscape.org/namespaces/inkscape"
   version="1.1"
   id="svg2"
   width="564"
   height="564"
   viewBox="0 0 564 564"
   sodipodi:docname="03e897cc6a120f82ff122850cf461219-3.svg"
   inkscape:version="0.92.3 (2405546, 2018-03-11)">
  <metadata
     id="metadata8">
    <rdf:RDF>
      <cc:Work
         rdf:about="">
        <dc:format>image/svg+xml</dc:format>
        <dc:type
           rdf:resource="http://purl.org/dc/dcmitype/StillImage" />
        <dc:title></dc:title>
      </cc:Work>
    </rdf:RDF>
  </metadata>
  <defs
     id="defs6" />
  <sodipodi:namedview
     pagecolor="#ffffff"
     bordercolor="#666666"
     borderopacity="1"
     objecttolerance="10"
     gridtolerance="10"
     guidetolerance="10"
     inkscape:pageopacity="0"
     inkscape:pageshadow="2"
     inkscape:window-width="1600"
     inkscape:window-height="1138"
     id="namedview4"
     showgrid="false"
     showguides="true"
     inkscape:guide-bbox="true"
     inkscape:zoom="1.0600348"
     inkscape:cx="464.63694"
     inkscape:cy="312.23752"
     inkscape:window-x="-8"
     inkscape:window-y="-8"
     inkscape:window-maximized="1"
     inkscape:current-layer="svg2">
    <sodipodi:guide
       position="403.11274,455.20545"
       orientation="1,0"
       id="guide817"
       inkscape:locked="false" />
    <sodipodi:guide
       position="397.96404,399.1755"
       orientation="0,1"
       id="guide819"
       inkscape:locked="false" />
  </sodipodi:namedview>
  <rect
     style="fill:#ffffff;stroke:#000000;stroke-width:0.5;stroke-miterlimit:4;stroke-dasharray:none"
     id="rect1647"
     width="565.07581"
     height="565.07581"
     x="-0.94336528"
     y="-1.0757899" />
  <g
     id="g1645"
     transform="matrix(2.3519389,0,0,2.3519389,-1568.4596,-106.64029)">
    <path
       style="fill:#000000;stroke:none;stroke-width:0.5;stroke-miterlimit:4;stroke-dasharray:none"
       d="M 895.58922,164.8245 A 109.3375,109.3375 0 0 1 786.25172,274.16199 109.3375,109.3375 0 0 1 676.91423,164.8245 109.3375,109.3375 0 0 1 786.25172,55.487003 109.3375,109.3375 0 0 1 895.58922,164.8245 Z"
       id="path1437"
       inkscape:connector-curvature="0" />
    <g
       transform="translate(0.57970073,-0.4427599)"
       style="fill:#ffffff;stroke:none;stroke-width:0.5;stroke-miterlimit:4;stroke-dasharray:none"
       id="g1540">
      <path
         sodipodi:nodetypes="cscccccc"
         inkscape:connector-curvature="0"
         id="path1169"
         d="m 746.34342,85.596434 c -1.49624,3.983678 2.27299,7.438956 5.34453,8.07391 3.1747,0.65628 6.20165,0.897236 11.50932,2.234608 -2.17775,-7.327758 0.38285,-13.647349 5.05777,-6.593291 -2.62875,-7.436052 -0.6568,-11.598257 3.36544,-6.873445 -0.0167,-8.623336 2.79266,-8.518799 5.264,-14.045048 -10.47878,1.240142 -23.66254,4.894956 -30.86122,8.046154 11.48173,-0.551771 8.2544,12.760812 0.32016,9.157112 z"
         style="fill:#ffffff;stroke:none;stroke-width:0.5;stroke-miterlimit:4;stroke-dasharray:none" />
      <path
         style="fill:#ffffff;stroke:none;stroke-width:0.5;stroke-miterlimit:4;stroke-dasharray:none"
         d="m 779.70507,148.72725 c 3.78277,-3.8895 4.49695,-8.31952 5.90186,-15.08526 v 0 c 1.40491,6.76574 2.11909,11.19576 5.90186,15.08526 -4.13291,-1.73677 -8.34014,-1.10707 -11.80372,0 z"
         id="path1069"
         inkscape:connector-curvature="0"
         sodipodi:nodetypes="ccccc" />
      <path
         sodipodi:nodetypes="cscc"
         inkscape:connector-curvature="0"
         id="path1071"
         d="m 764.35709,113.99814 c 3.59048,-1.28263 5.99189,-0.12219 8.21544,1.56235 1.87988,1.42419 5.66882,7.49137 6.29637,11.37046 -6.03462,-8.24283 -11.70348,-6.84416 -14.51181,-12.93281 z"
         style="fill:#ffffff;stroke:none;stroke-width:0.5;stroke-miterlimit:4;stroke-dasharray:none" />
      <path
         style="fill:#ffffff;stroke:none;stroke-width:0.5;stroke-miterlimit:4;stroke-dasharray:none"
         d="m 739.02637,95.365595 c 2.85248,-3.041931 6.30818,0.862091 7.39924,2.498591 -1.41769,-0.168732 -6.12954,1.729822 -7.39924,-2.498591 z"
         id="path1073"
         inkscape:connector-curvature="0"
         sodipodi:nodetypes="ccc" />
      <path
         style="fill:#000000;stroke:#ff0000;stroke-width:0.5;stroke-linecap:butt;stroke-linejoin:miter;stroke-miterlimit:4;stroke-dasharray:none;stroke-opacity:1"
         d="m 770.68638,100.92531 c -0.16161,-4.171374 0.30069,-8.218541 2.88427,-12.514141 2.61566,-4.896456 3.85871,-7.80544 3.72917,-16.179971"
         id="path1075"
         inkscape:connector-curvature="0"
         sodipodi:nodetypes="ccc" />
      <path
         style="fill:#000000;stroke:#ff0000;stroke-width:0.5;stroke-linecap:butt;stroke-linejoin:miter;stroke-miterlimit:4;stroke-dasharray:none;stroke-opacity:1"
         d="m 765.81988,91.981696 c -0.16637,6.003821 2.91158,6.169444 4.74171,6.831935"
         id="path1077"
         inkscape:connector-curvature="0"
         sodipodi:nodetypes="cc" />
      <path
         sodipodi:nodetypes="cc"
         inkscape:connector-curvature="0"
         id="path1079"
         d="m 769.189,83.286508 c 2.82839,4.761651 -0.20796,8.281132 2.37085,8.943623"
         style="fill:#000000;stroke:#ff0000;stroke-width:0.5;stroke-linecap:butt;stroke-linejoin:miter;stroke-miterlimit:4;stroke-dasharray:none;stroke-opacity:1" />
      <path
         style="fill:#000000;stroke:#ff0000;stroke-width:0.5;stroke-linecap:butt;stroke-linejoin:miter;stroke-miterlimit:4;stroke-dasharray:none;stroke-opacity:1"
         d="m 774.05549,77.199876 c -0.28895,3.742323 1.27079,2.995433 1.3726,7.328803"
         id="path1081"
         inkscape:connector-curvature="0"
         sodipodi:nodetypes="cc" />
      <path
         sodipodi:nodetypes="cc"
         inkscape:connector-curvature="0"
         id="path1083"
         d="m 780.54415,80.926385 c -1.03764,2.624371 -2.59744,2.995433 -5.11606,3.602294"
         style="fill:#000000;stroke:#ff0000;stroke-width:0.5;stroke-linecap:butt;stroke-linejoin:miter;stroke-miterlimit:4;stroke-dasharray:none;stroke-opacity:1" />
      <path
         style="fill:#000000;stroke:#ff0000;stroke-width:0.5;stroke-linecap:butt;stroke-linejoin:miter;stroke-miterlimit:4;stroke-dasharray:none;stroke-opacity:1"
         d="m 780.54415,89.74579 c -4.0324,-0.60527 -6.46569,1.87748 -8.9843,2.484341"
         id="path1085"
         inkscape:connector-curvature="0"
         sodipodi:nodetypes="cc" />
      <path
         sodipodi:nodetypes="cc"
         inkscape:connector-curvature="0"
         id="path1087"
         d="m 780.54415,96.950375 c -4.0324,-0.605271 -7.46395,0.01422 -9.98256,1.863256"
         style="fill:#000000;stroke:#ff0000;stroke-width:0.5;stroke-linecap:butt;stroke-linejoin:miter;stroke-miterlimit:4;stroke-dasharray:none;stroke-opacity:1" />
      <path
         style="fill:#ffffff;stroke:none;stroke-width:0.5;stroke-miterlimit:4;stroke-dasharray:none"
         d="m 706.00752,126.1815 c 4.00179,-1.48948 7.47279,2.26269 8.11063,5.32033 0.65926,3.16033 0.90132,6.17357 2.24477,11.45721 -7.36109,-2.16788 -13.70941,0.38112 -6.62328,5.03488 -7.46987,-2.61685 -11.651,-0.65383 -6.9047,3.3502 -8.66255,-0.0166 -8.55754,2.78002 -14.10892,5.24017 1.24579,-10.43134 4.91721,-23.55542 8.08275,-30.72151 -0.55429,11.42975 12.81884,8.21704 9.19875,0.31872 z"
         id="path1089"
         inkscape:connector-curvature="0"
         sodipodi:nodetypes="cscccccc" />
      <path
         style="fill:#ffffff;stroke:none;stroke-width:0.5;stroke-miterlimit:4;stroke-dasharray:none"
         d="m 700.16166,119.86652 c 2.53392,-1.59228 8.84831,-4.0888 12.37518,0.38397 0.3842,-2.11176 0.23759,-4.10723 3.08128,-5.84734 3.34881,1.30595 3.37188,3.28813 4.45063,5.75836 4.37405,-6.68631 11.08437,-7.58355 13.44949,-6.96303 -0.84022,-2.57028 0.0611,-9.25022 6.77783,-13.604474 -2.48148,-1.073869 -4.47267,-1.096834 -5.78456,-4.430479 1.74803,-2.830816 3.75258,-2.684868 5.87393,-3.067333 -4.49311,-3.510901 -1.98523,-9.796711 -0.38571,-12.319156 -18.37803,10.255947 -31.93586,23.772342 -39.83807,40.089482 z"
         id="path1093"
         inkscape:connector-curvature="0"
         sodipodi:nodetypes="cccccccccc" />
      <path
         sodipodi:nodetypes="ccccccccccc"
         inkscape:connector-curvature="0"
         id="path1095"
         d="m 737.8038,142.03235 c -1.07875,-2.47025 -3.30767,-2.78356 -6.03884,-2.94767 -2.84369,1.74011 -0.49123,7.60031 -0.87543,9.71206 -6.79153,-1.74988 -11.87064,-22.00253 0.68348,-27.70054 -2.10672,8.20497 12.4863,8.2561 7.72636,-2.14275 10.22927,4.52251 10.17792,-10.00445 1.93563,-7.90726 5.72392,-12.497293 26.06867,-7.44117 27.82652,-0.68039 -2.12135,0.38247 -8.00821,-1.95935 -9.75623,0.87147 0.16485,2.7188 0.47959,4.93763 2.96107,6.0115 -10.33432,-0.82799 -14.14738,8.92617 -10.70425,13.9119 -4.79155,-3.21166 -14.59007,0.58414 -13.75831,10.87168 z"
         style="fill:#ffffff;stroke:none;stroke-width:0.5;stroke-miterlimit:4;stroke-dasharray:none" />
      <path
         style="fill:#ffffff;stroke:none;stroke-width:0.5;stroke-miterlimit:4;stroke-dasharray:none"
         d="m 748.51395,138.39962 c -9.28946,5.171 1.08371,23.57913 14.66927,16.45772 -4.73338,0.52329 -10.17404,-1.20868 -10.77148,-6.98919 -0.44526,-6.77483 7.69535,-9.18439 9.56821,-4.0791 -6.91991,2.36064 0.67275,13.05757 8.28779,5.99258 6.88026,-7.79645 -3.86531,-15.35474 -6.23669,-8.46615 -5.12851,-1.86438 -2.70799,-9.96814 4.09765,-9.5249 5.8068,0.59473 7.54665,6.01076 7.02097,10.72272 7.1538,-13.52407 -11.33804,-23.85028 -16.53255,-14.60286 4.71293,-1.04317 3.61724,10.67309 -4.00913,6.28233 4.62759,7.80772 -7.14195,8.89846 -6.09404,4.20685 z"
         id="path1097"
         inkscape:connector-curvature="0"
         sodipodi:nodetypes="ccccccccccc" />
      <path
         style="fill:#ffffff;stroke:none;stroke-width:0.5;stroke-miterlimit:4;stroke-dasharray:none"
         d="m 734.53839,144.11361 c -1.28846,3.57423 -0.12275,5.96477 1.56946,8.17826 1.43066,1.87137 7.52543,5.64315 11.42216,6.26786 -8.28031,-6.00731 -6.87528,-11.65051 -12.99162,-14.44612 z"
         id="path1101"
         inkscape:connector-curvature="0"
         sodipodi:nodetypes="cscc" />
      <path
         sodipodi:nodetypes="ccc"
         inkscape:connector-curvature="0"
         id="path1103"
         d="m 715.8211,118.89757 c -3.05576,2.83956 0.86602,6.27962 2.50996,7.36574 -0.1695,-1.41127 1.73769,-6.1018 -2.50996,-7.36574 z"
         style="fill:#ffffff;stroke:none;stroke-width:0.5;stroke-miterlimit:4;stroke-dasharray:none" />
      <path
         sodipodi:nodetypes="ccc"
         inkscape:connector-curvature="0"
         id="path1105"
         d="m 721.40611,150.41426 c -4.19035,-0.16088 -8.25592,0.29931 -12.57106,2.87121 -4.91872,2.60381 -7.84093,3.84124 -16.25355,3.71229"
         style="fill:#000000;stroke:#ff0000;stroke-width:0.5;stroke-linecap:butt;stroke-linejoin:miter;stroke-miterlimit:4;stroke-dasharray:none;stroke-opacity:1" />
      <path
         sodipodi:nodetypes="cc"
         inkscape:connector-curvature="0"
         id="path1107"
         d="m 712.42182,145.56978 c 6.03112,-0.16561 6.1975,2.89841 6.86301,4.72025"
         style="fill:#000000;stroke:#ff0000;stroke-width:0.5;stroke-linecap:butt;stroke-linejoin:miter;stroke-miterlimit:4;stroke-dasharray:none;stroke-opacity:1" />
      <path
         style="fill:#000000;stroke:#ff0000;stroke-width:0.5;stroke-linecap:butt;stroke-linejoin:miter;stroke-miterlimit:4;stroke-dasharray:none;stroke-opacity:1"
         d="m 703.68709,148.92365 c 4.78331,2.81559 8.31879,-0.20702 8.98429,2.36012"
         id="path1109"
         inkscape:connector-curvature="0"
         sodipodi:nodetypes="cc" />
      <path
         sodipodi:nodetypes="cc"
         inkscape:connector-curvature="0"
         id="path1111"
         d="m 697.57277,153.76811 c 3.75935,-0.28764 3.00907,1.26504 7.36214,1.36639"
         style="fill:#000000;stroke:#ff0000;stroke-width:0.5;stroke-linecap:butt;stroke-linejoin:miter;stroke-miterlimit:4;stroke-dasharray:none;stroke-opacity:1" />
      <path
         style="fill:#000000;stroke:#ff0000;stroke-width:0.5;stroke-linecap:butt;stroke-linejoin:miter;stroke-miterlimit:4;stroke-dasharray:none;stroke-opacity:1"
         d="m 701.31623,160.22739 c 2.63631,-1.03294 3.00906,-2.58569 3.61868,-5.09289"
         id="path1113"
         inkscape:connector-curvature="0"
         sodipodi:nodetypes="cc" />
      <path
         sodipodi:nodetypes="cc"
         inkscape:connector-curvature="0"
         id="path1115"
         d="m 710.17575,160.22739 c -0.60803,-4.01414 1.88601,-6.43641 2.49563,-8.94362"
         style="fill:#000000;stroke:#ff0000;stroke-width:0.5;stroke-linecap:butt;stroke-linejoin:miter;stroke-miterlimit:4;stroke-dasharray:none;stroke-opacity:1" />
      <path
         style="fill:#000000;stroke:#ff0000;stroke-width:0.5;stroke-linecap:butt;stroke-linejoin:miter;stroke-miterlimit:4;stroke-dasharray:none;stroke-opacity:1"
         d="m 717.4131,160.22739 c -0.60803,-4.01414 0.0143,-7.43016 1.87172,-9.93736"
         id="path1117"
         inkscape:connector-curvature="0"
         sodipodi:nodetypes="cc" />
      <path
         style="fill:#ffffff;stroke:none;stroke-width:0.5;stroke-miterlimit:4;stroke-dasharray:none"
         d="m 824.87044,85.596434 c 1.49624,3.983678 -2.27299,7.438956 -5.34453,8.07391 -3.1747,0.65628 -6.20165,0.897236 -11.50932,2.234608 2.17775,-7.327758 -0.38285,-13.647349 -5.05777,-6.593291 2.62875,-7.436052 0.6568,-11.598257 -3.36544,-6.873445 0.0167,-8.623336 -2.79266,-8.518799 -5.264,-14.045048 10.47878,1.240142 23.66254,4.894956 30.86122,8.046154 -11.48173,-0.551771 -8.2544,12.760812 -0.32016,9.157112 z"
         id="path1136"
         inkscape:connector-curvature="0"
         sodipodi:nodetypes="cscccccc" />
      <path
         sodipodi:nodetypes="cccccccccccccc"
         inkscape:connector-curvature="0"
         id="path1138"
         d="m 791.13563,109.93047 c 4.02224,-4.72481 4.40597,-14.791825 -3.34035,-9.46381 -0.44266,-2.750155 -0.68837,-6.355881 4.70483,-7.196748 -6.89318,-3.796743 -5.0903,-7.420929 -0.49051,-5.572325 -2.48721,-2.128144 -4.27673,-3.914562 -1.62597,-9.391429 1.94798,-4.740595 -0.22054,-7.230057 -0.20924,-10.191672 -3.4894,-0.322141 -6.09752,-0.204134 -9.06623,-0.136754 0.0113,2.961614 -2.22591,5.587831 -0.27793,10.328426 2.65076,5.476867 0.86124,7.263285 -1.62597,9.391429 4.59979,-1.848604 6.40267,1.775582 -0.49051,5.572325 5.3932,0.840867 5.14749,4.446593 4.70483,7.196748 -7.74632,-5.328015 -7.36259,4.739 -3.34035,9.46381 2.18916,2.70733 4.38088,6.32525 5.5287,13.18369 1.14782,-6.85844 3.33954,-10.47636 5.5287,-13.18369 z"
         style="fill:#ffffff;stroke:none;stroke-width:0.5;stroke-miterlimit:4;stroke-dasharray:none" />
      <path
         style="fill:#ffffff;stroke:none;stroke-width:0.5;stroke-miterlimit:4;stroke-dasharray:none"
         d="m 806.85677,113.99814 c -3.59048,-1.28263 -5.99189,-0.12219 -8.21544,1.56235 -1.87988,1.42419 -5.66882,7.49137 -6.29637,11.37046 6.03462,-8.24283 11.70348,-6.84416 14.51181,-12.93281 z"
         id="path1142"
         inkscape:connector-curvature="0"
         sodipodi:nodetypes="cscc" />
      <path
         sodipodi:nodetypes="ccc"
         inkscape:connector-curvature="0"
         id="path1144"
         d="m 832.18749,95.365595 c -2.85248,-3.041931 -6.30818,0.862091 -7.39924,2.498591 1.41769,-0.168732 6.12954,1.729822 7.39924,-2.498591 z"
         style="fill:#ffffff;stroke:none;stroke-width:0.5;stroke-miterlimit:4;stroke-dasharray:none" />
      <path
         sodipodi:nodetypes="ccc"
         inkscape:connector-curvature="0"
         id="path1146"
         d="m 800.52747,100.92531 c 0.16162,-4.171374 -0.30068,-8.218541 -2.88427,-12.514141 -2.61565,-4.896456 -3.85871,-7.80544 -3.72916,-16.179971"
         style="fill:#000000;stroke:#ff0000;stroke-width:0.5;stroke-linecap:butt;stroke-linejoin:miter;stroke-miterlimit:4;stroke-dasharray:none;stroke-opacity:1" />
      <path
         sodipodi:nodetypes="cc"
         inkscape:connector-curvature="0"
         id="path1148"
         d="m 805.39398,91.981696 c 0.16637,6.003821 -2.91158,6.169444 -4.74171,6.831935"
         style="fill:#000000;stroke:#ff0000;stroke-width:0.5;stroke-linecap:butt;stroke-linejoin:miter;stroke-miterlimit:4;stroke-dasharray:none;stroke-opacity:1" />
      <path
         style="fill:#000000;stroke:#ff0000;stroke-width:0.5;stroke-linecap:butt;stroke-linejoin:miter;stroke-miterlimit:4;stroke-dasharray:none;stroke-opacity:1"
         d="m 802.02486,83.286508 c -2.82839,4.761651 0.20796,8.281132 -2.37085,8.943623"
         id="path1150"
         inkscape:connector-curvature="0"
         sodipodi:nodetypes="cc" />
      <path
         sodipodi:nodetypes="cc"
         inkscape:connector-curvature="0"
         id="path1152"
         d="m 797.15837,77.199876 c 0.28895,3.742323 -1.27079,2.995433 -1.3726,7.328803"
         style="fill:#000000;stroke:#ff0000;stroke-width:0.5;stroke-linecap:butt;stroke-linejoin:miter;stroke-miterlimit:4;stroke-dasharray:none;stroke-opacity:1" />
      <path
         style="fill:#000000;stroke:#ff0000;stroke-width:0.5;stroke-linecap:butt;stroke-linejoin:miter;stroke-miterlimit:4;stroke-dasharray:none;stroke-opacity:1"
         d="m 790.66971,80.926385 c 1.03764,2.624371 2.59745,2.995433 5.11606,3.602294"
         id="path1154"
         inkscape:connector-curvature="0"
         sodipodi:nodetypes="cc" />
      <path
         sodipodi:nodetypes="cc"
         inkscape:connector-curvature="0"
         id="path1156"
         d="m 790.66971,89.74579 c 4.0324,-0.60527 6.46569,1.87748 8.9843,2.484341"
         style="fill:#000000;stroke:#ff0000;stroke-width:0.5;stroke-linecap:butt;stroke-linejoin:miter;stroke-miterlimit:4;stroke-dasharray:none;stroke-opacity:1" />
      <path
         style="fill:#000000;stroke:#ff0000;stroke-width:0.5;stroke-linecap:butt;stroke-linejoin:miter;stroke-miterlimit:4;stroke-dasharray:none;stroke-opacity:1"
         d="m 790.66971,96.950375 c 4.0324,-0.605271 7.46395,0.01422 9.98256,1.863256"
         id="path1158"
         inkscape:connector-curvature="0"
         sodipodi:nodetypes="cc" />
      <path
         sodipodi:nodetypes="cscccccc"
         inkscape:connector-curvature="0"
         id="path1160"
         d="m 865.20634,126.1815 c -4.00179,-1.48948 -7.47279,2.26269 -8.11063,5.32033 -0.65926,3.16033 -0.90132,6.17357 -2.24477,11.45721 7.36109,-2.16788 13.70941,0.38112 6.62328,5.03488 7.46987,-2.61685 11.651,-0.65383 6.9047,3.3502 8.66255,-0.0166 8.55754,2.78002 14.10892,5.24017 -1.24579,-10.43134 -4.91721,-23.55542 -8.08275,-30.72151 0.55429,11.42975 -12.81884,8.21704 -9.19875,0.31872 z"
         style="fill:#ffffff;stroke:none;stroke-width:0.5;stroke-miterlimit:4;stroke-dasharray:none" />
      <path
         sodipodi:nodetypes="cccccccccc"
         inkscape:connector-curvature="0"
         id="path1164"
         d="m 871.0522,119.86652 c -2.53392,-1.59228 -8.84831,-4.0888 -12.37518,0.38397 -0.3842,-2.11176 -0.23759,-4.10723 -3.08128,-5.84734 -3.34881,1.30595 -3.37188,3.28813 -4.45063,5.75836 -4.37405,-6.68631 -11.08437,-7.58355 -13.44949,-6.96303 0.84022,-2.57028 -0.0611,-9.25022 -6.77783,-13.604474 2.48148,-1.073869 4.47267,-1.096834 5.78456,-4.430479 -1.74803,-2.830816 -3.75258,-2.684868 -5.87393,-3.067333 4.49311,-3.510901 1.98523,-9.796711 0.38571,-12.319156 18.37803,10.255947 31.93586,23.772342 39.83807,40.089482 z"
         style="fill:#ffffff;stroke:none;stroke-width:0.5;stroke-miterlimit:4;stroke-dasharray:none" />
      <path
         style="fill:#ffffff;stroke:none;stroke-width:0.5;stroke-miterlimit:4;stroke-dasharray:none"
         d="m 833.41006,142.03235 c 1.07875,-2.47025 3.30767,-2.78356 6.03884,-2.94767 2.84369,1.74011 0.49122,7.60031 0.87543,9.71206 6.79153,-1.74988 11.87064,-22.00253 -0.68348,-27.70054 2.10672,8.20497 -12.4863,8.2561 -7.72636,-2.14275 -10.22928,4.52251 -10.17792,-10.00445 -1.93563,-7.90726 -5.72392,-12.497293 -26.06867,-7.44117 -27.82652,-0.68039 2.12135,0.38247 8.00821,-1.95935 9.75623,0.87147 -0.16485,2.7188 -0.47959,4.93763 -2.96107,6.0115 10.33432,-0.82799 14.14738,8.92617 10.70425,13.9119 4.79155,-3.21166 14.59007,0.58414 13.75831,10.87168 z"
         id="path1166"
         inkscape:connector-curvature="0"
         sodipodi:nodetypes="ccccccccccc" />
      <path
         sodipodi:nodetypes="ccccccccccc"
         inkscape:connector-curvature="0"
         id="path1168"
         d="m 822.69991,138.39962 c 9.28946,5.171 -1.08371,23.57913 -14.66927,16.45772 4.73338,0.52329 10.17404,-1.20868 10.77147,-6.98919 0.44527,-6.77483 -7.69535,-9.18439 -9.5682,-4.0791 6.91991,2.36064 -0.67275,13.05757 -8.28779,5.99258 -6.88026,-7.79645 3.86531,-15.35474 6.23669,-8.46615 5.12851,-1.86438 2.70799,-9.96814 -4.09765,-9.5249 -5.8068,0.59473 -7.54665,6.01076 -7.02097,10.72272 -7.1538,-13.52407 11.33804,-23.85028 16.53255,-14.60286 -4.71293,-1.04317 -3.61724,10.67309 4.00913,6.28233 -4.62759,7.80772 7.14195,8.89846 6.09404,4.20685 z"
         style="fill:#ffffff;stroke:none;stroke-width:0.5;stroke-miterlimit:4;stroke-dasharray:none" />
      <path
         style="fill:#ffffff;stroke:none;stroke-width:0.5;stroke-miterlimit:4;stroke-dasharray:none"
         d="m 801.78843,159.39212 c 1.74467,4.1142 1.11211,8.30237 0,11.75028 3.90718,-3.76564 8.35734,-4.47659 15.15386,-5.87514 -6.79652,-1.39856 -11.24668,-2.10951 -15.15386,-5.87514 z"
         id="path1170"
         inkscape:connector-curvature="0"
         sodipodi:nodetypes="cccc" />
      <path
         sodipodi:nodetypes="cscc"
         inkscape:connector-curvature="0"
         id="path1172"
         d="m 836.67547,144.11361 c 1.28846,3.57423 0.12275,5.96477 -1.56946,8.17826 -1.43066,1.87137 -7.52543,5.64315 -11.42216,6.26786 8.28031,-6.00731 6.87528,-11.65051 12.99162,-14.44612 z"
         style="fill:#ffffff;stroke:none;stroke-width:0.5;stroke-miterlimit:4;stroke-dasharray:none" />
      <path
         style="fill:#ffffff;stroke:none;stroke-width:0.5;stroke-miterlimit:4;stroke-dasharray:none"
         d="m 855.39276,118.89757 c 3.05576,2.83956 -0.86602,6.27962 -2.50996,7.36574 0.1695,-1.41127 -1.73769,-6.1018 2.50996,-7.36574 z"
         id="path1174"
         inkscape:connector-curvature="0"
         sodipodi:nodetypes="ccc" />
      <path
         style="fill:#000000;stroke:#ff0000;stroke-width:0.5;stroke-linecap:butt;stroke-linejoin:miter;stroke-miterlimit:4;stroke-dasharray:none;stroke-opacity:1"
         d="m 849.80775,150.41426 c 4.19035,-0.16088 8.25592,0.29931 12.57106,2.87121 4.91872,2.60381 7.84093,3.84124 16.25355,3.71229"
         id="path1176"
         inkscape:connector-curvature="0"
         sodipodi:nodetypes="ccc" />
      <path
         style="fill:#000000;stroke:#ff0000;stroke-width:0.5;stroke-linecap:butt;stroke-linejoin:miter;stroke-miterlimit:4;stroke-dasharray:none;stroke-opacity:1"
         d="m 858.79204,145.56978 c -6.03112,-0.16561 -6.1975,2.89841 -6.86301,4.72025"
         id="path1178"
         inkscape:connector-curvature="0"
         sodipodi:nodetypes="cc" />
      <path
         sodipodi:nodetypes="cc"
         inkscape:connector-curvature="0"
         id="path1180"
         d="m 867.52677,148.92365 c -4.78331,2.81559 -8.31879,-0.20702 -8.98429,2.36012"
         style="fill:#000000;stroke:#ff0000;stroke-width:0.5;stroke-linecap:butt;stroke-linejoin:miter;stroke-miterlimit:4;stroke-dasharray:none;stroke-opacity:1" />
      <path
         style="fill:#000000;stroke:#ff0000;stroke-width:0.5;stroke-linecap:butt;stroke-linejoin:miter;stroke-miterlimit:4;stroke-dasharray:none;stroke-opacity:1"
         d="m 873.64109,153.76811 c -3.75935,-0.28764 -3.00907,1.26504 -7.36214,1.36639"
         id="path1182"
         inkscape:connector-curvature="0"
         sodipodi:nodetypes="cc" />
      <path
         sodipodi:nodetypes="cc"
         inkscape:connector-curvature="0"
         id="path1184"
         d="m 869.89763,160.22739 c -2.63631,-1.03294 -3.00906,-2.58569 -3.61868,-5.09289"
         style="fill:#000000;stroke:#ff0000;stroke-width:0.5;stroke-linecap:butt;stroke-linejoin:miter;stroke-miterlimit:4;stroke-dasharray:none;stroke-opacity:1" />
      <path
         style="fill:#000000;stroke:#ff0000;stroke-width:0.5;stroke-linecap:butt;stroke-linejoin:miter;stroke-miterlimit:4;stroke-dasharray:none;stroke-opacity:1"
         d="m 861.03811,160.22739 c 0.60803,-4.01414 -1.88602,-6.43641 -2.49563,-8.94362"
         id="path1186"
         inkscape:connector-curvature="0"
         sodipodi:nodetypes="cc" />
      <path
         sodipodi:nodetypes="cc"
         inkscape:connector-curvature="0"
         id="path1188"
         d="m 853.80076,160.22739 c 0.60803,-4.01414 -0.0143,-7.43016 -1.87172,-9.93736"
         style="fill:#000000;stroke:#ff0000;stroke-width:0.5;stroke-linecap:butt;stroke-linejoin:miter;stroke-miterlimit:4;stroke-dasharray:none;stroke-opacity:1" />
      <g
         style="fill:#ffffff;stroke:none;stroke-width:0.5011304;stroke-miterlimit:4;stroke-dasharray:none"
         id="g1435"
         transform="matrix(1.0000104,0,0,-0.99548334,382.49001,329.3473)">
        <path
           sodipodi:nodetypes="cscccccc"
           inkscape:connector-curvature="0"
           id="path1277"
           d="m 363.84964,84.7922 c -1.49623,4.001752 2.27296,7.472707 5.34447,8.110542 3.17467,0.659258 6.20159,0.901307 11.5092,2.244747 -2.17772,-7.361005 0.38285,-13.709269 5.05772,-6.623206 -2.62872,-7.46979 -0.65679,-11.650881 3.36541,-6.904631 -0.0167,-8.662461 2.79263,-8.557451 5.26394,-14.108773 -10.47867,1.245769 -23.66229,4.917166 -30.8609,8.082661 11.48161,-0.554275 8.25432,12.81871 0.32016,9.19866 z"
           style="fill:#ffffff;stroke:none;stroke-width:0.5011304;stroke-miterlimit:4;stroke-dasharray:none" />
        <path
           style="fill:#ffffff;stroke:none;stroke-width:0.5011304;stroke-miterlimit:4;stroke-dasharray:none"
           d="m 397.21094,148.20945 c 3.78273,-3.90714 4.4969,-8.35726 5.9018,-15.1537 v 0 c 1.4049,6.79644 2.11907,11.24656 5.9018,15.1537 -4.13287,-1.74465 -8.34005,-1.1121 -11.8036,0 z"
           id="path1279"
           inkscape:connector-curvature="0"
           sodipodi:nodetypes="ccccc" />
        <path
           sodipodi:nodetypes="cscc"
           inkscape:connector-curvature="0"
           id="path1281"
           d="m 381.86312,113.32277 c 3.59044,-1.28845 5.99183,-0.12275 8.21536,1.56944 1.87986,1.43065 5.66876,7.52536 6.2963,11.42205 -6.03456,-8.28023 -11.70336,-6.87521 -14.51166,-12.99149 z"
           style="fill:#ffffff;stroke:none;stroke-width:0.5011304;stroke-miterlimit:4;stroke-dasharray:none" />
        <path
           style="fill:#ffffff;stroke:none;stroke-width:0.5011304;stroke-miterlimit:4;stroke-dasharray:none"
           d="m 356.53266,94.605685 c 2.85245,-3.055733 6.30812,0.866002 7.39917,2.509927 -1.41768,-0.169498 -6.12948,1.73767 -7.39917,-2.509927 z"
           id="path1283"
           inkscape:connector-curvature="0"
           sodipodi:nodetypes="ccc" />
        <path
           style="fill:#000000;stroke:#ff0000;stroke-width:0.5011304;stroke-linecap:butt;stroke-linejoin:miter;stroke-miterlimit:4;stroke-dasharray:none;stroke-opacity:1"
           d="m 388.19235,100.19063 c -0.16161,-4.190305 0.30068,-8.255835 2.88424,-12.570925 2.61563,-4.918672 3.85867,-7.840854 3.72913,-16.253382"
           id="path1285"
           inkscape:connector-curvature="0"
           sodipodi:nodetypes="ccc" />
        <path
           style="fill:#000000;stroke:#ff0000;stroke-width:0.5011304;stroke-linecap:butt;stroke-linejoin:miter;stroke-miterlimit:4;stroke-dasharray:none;stroke-opacity:1"
           d="m 383.3259,91.206433 c -0.16637,6.031061 2.91155,6.197435 4.74166,6.862932"
           id="path1287"
           inkscape:connector-curvature="0"
           sodipodi:nodetypes="cc" />
        <path
           sodipodi:nodetypes="cc"
           inkscape:connector-curvature="0"
           id="path1289"
           d="m 386.69498,82.471793 c 2.82836,4.783255 -0.20796,8.318705 2.37083,8.984202"
           style="fill:#000000;stroke:#ff0000;stroke-width:0.5011304;stroke-linecap:butt;stroke-linejoin:miter;stroke-miterlimit:4;stroke-dasharray:none;stroke-opacity:1" />
        <path
           style="fill:#000000;stroke:#ff0000;stroke-width:0.5011304;stroke-linecap:butt;stroke-linejoin:miter;stroke-miterlimit:4;stroke-dasharray:none;stroke-opacity:1"
           d="m 391.56142,76.357545 c -0.28895,3.759303 1.27078,3.009023 1.37259,7.362055"
           id="path1291"
           inkscape:connector-curvature="0"
           sodipodi:nodetypes="cc" />
        <path
           sodipodi:nodetypes="cc"
           inkscape:connector-curvature="0"
           id="path1293"
           d="m 398.05001,80.100962 c -1.03763,2.636278 -2.59742,3.009023 -5.116,3.618638"
           style="fill:#000000;stroke:#ff0000;stroke-width:0.5011304;stroke-linecap:butt;stroke-linejoin:miter;stroke-miterlimit:4;stroke-dasharray:none;stroke-opacity:1" />
        <path
           style="fill:#000000;stroke:#ff0000;stroke-width:0.5011304;stroke-linecap:butt;stroke-linejoin:miter;stroke-miterlimit:4;stroke-dasharray:none;stroke-opacity:1"
           d="m 398.05001,88.960382 c -4.03236,-0.608017 -6.46562,1.885998 -8.9842,2.495613"
           id="path1295"
           inkscape:connector-curvature="0"
           sodipodi:nodetypes="cc" />
        <path
           sodipodi:nodetypes="cc"
           inkscape:connector-curvature="0"
           id="path1297"
           d="m 398.05001,96.197655 c -4.03236,-0.608017 -7.46387,0.01429 -9.98245,1.87171"
           style="fill:#000000;stroke:#ff0000;stroke-width:0.5011304;stroke-linecap:butt;stroke-linejoin:miter;stroke-miterlimit:4;stroke-dasharray:none;stroke-opacity:1" />
        <path
           style="fill:#ffffff;stroke:none;stroke-width:0.5011304;stroke-miterlimit:4;stroke-dasharray:none"
           d="m 323.51416,125.5614 c 4.00175,-1.49623 7.47271,2.27296 8.11054,5.34447 0.65926,3.17467 0.90131,6.20159 2.24475,11.5092 -7.36101,-2.17772 -13.70927,0.38285 -6.62321,5.05772 -7.46979,-2.62872 -11.65088,-0.65679 -6.90463,3.36541 -8.66246,-0.0167 -8.55745,2.79263 -14.10877,5.26394 1.24577,-10.47867 4.91716,-23.66229 8.08266,-30.8609 -0.55428,11.48161 12.81871,8.25432 9.19866,0.32016 z"
           id="path1299"
           inkscape:connector-curvature="0"
           sodipodi:nodetypes="cscccccc" />
        <path
           sodipodi:nodetypes="cccccccccccccc"
           inkscape:connector-curvature="0"
           id="path1301"
           d="m 306.02158,160.25709 c 2.97505,0.0113 5.40712,-2.1572 10.16923,-0.20924 5.50171,2.65073 7.29624,0.86123 9.43403,-1.62595 -1.85699,4.59974 1.78364,6.4026 5.59761,-0.49051 0.84469,5.39315 4.46677,5.14744 7.22941,4.70478 -5.3522,-7.74624 4.76049,-7.36251 9.50674,-3.34031 2.71962,2.18913 6.35396,4.38083 13.24351,5.52864 -6.88955,1.14781 -10.52389,3.33951 -13.24351,5.52864 -4.74625,4.0222 -14.85894,4.40593 -9.50674,-3.34031 -2.76264,-0.44266 -6.38472,-0.68837 -7.22941,4.70478 -3.81397,-6.89311 -7.4546,-5.09025 -5.59761,-0.49051 -2.13779,-2.48718 -3.93232,-4.27668 -9.43403,-1.62595 -4.76211,1.94796 -7.19418,-0.22054 -10.16923,-0.20924 -0.17425,-2.76806 -0.36249,-6.6281 0,-9.13482 z"
           style="fill:#ffffff;stroke:none;stroke-width:0.5011304;stroke-miterlimit:4;stroke-dasharray:none" />
        <path
           style="fill:#ffffff;stroke:none;stroke-width:0.5011304;stroke-miterlimit:4;stroke-dasharray:none"
           d="m 317.66836,119.21777 c 2.53389,-1.5995 8.84822,-4.10735 12.37505,0.38571 0.3842,-2.12133 0.23759,-4.12586 3.08125,-5.87387 3.34877,1.31188 3.37184,3.30305 4.45058,5.7845 4.37401,-6.71665 11.08426,-7.61797 13.44935,-6.99463 -0.84021,-2.58194 0.0611,-9.29219 6.77776,-13.6662 -2.48145,-1.07874 -4.47262,-1.10181 -5.7845,-4.45058 1.74801,-2.84366 3.75254,-2.69705 5.87387,-3.08125 -4.49306,-3.52683 -1.98521,-9.84116 -0.38571,-12.37505 -18.37783,10.30248 -31.93552,23.8802 -39.83765,40.27137 z"
           id="path1303"
           inkscape:connector-curvature="0"
           sodipodi:nodetypes="cccccccccc" />
        <path
           sodipodi:nodetypes="ccccccccccc"
           inkscape:connector-curvature="0"
           id="path1305"
           d="m 355.31011,141.48417 c -1.07874,-2.48145 -3.30764,-2.79619 -6.03878,-2.96104 -2.84366,1.74801 -0.49122,7.6348 -0.87542,9.75613 -6.79146,-1.75783 -11.87052,-22.10237 0.68347,-27.82623 -2.1067,8.24221 12.48617,8.29356 7.72628,-2.15247 10.22917,4.54303 10.17782,-10.04984 1.93561,-7.94314 5.72386,-12.55399 26.0684,-7.47493 27.82623,-0.68347 -2.12133,0.3842 -8.00812,-1.96824 -9.75613,0.87542 0.16485,2.73114 0.47959,4.96004 2.96104,6.03878 -10.33421,-0.83175 -14.14723,8.96666 -10.70414,13.97502 -4.7915,-3.22623 -14.58991,0.58679 -13.75816,10.921 z"
           style="fill:#ffffff;stroke:none;stroke-width:0.5011304;stroke-miterlimit:4;stroke-dasharray:none" />
        <path
           style="fill:#ffffff;stroke:none;stroke-width:0.5011304;stroke-miterlimit:4;stroke-dasharray:none"
           d="m 366.02015,137.83497 c -9.28937,5.19446 1.08369,23.6861 14.66911,16.53238 -4.73333,0.52567 -10.17393,-1.21416 -10.77136,-7.0209 -0.44526,-6.80557 7.69527,-9.22606 9.56811,-4.09761 -6.91984,2.37136 0.67274,13.11682 8.2877,6.01977 6.88019,-7.83182 -3.86527,-15.4244 -6.23663,-8.50456 -5.12845,-1.87284 -2.70796,-10.01337 4.09761,-9.56811 5.80674,0.59743 7.54657,6.03803 7.0209,10.77136 7.15372,-13.58542 -11.33792,-23.95848 -16.53238,-14.66911 4.71288,-1.0479 3.6172,10.72151 -4.00909,6.31083 4.62754,7.84315 -7.14187,8.93883 -6.09397,4.22595 z"
           id="path1307"
           inkscape:connector-curvature="0"
           sodipodi:nodetypes="ccccccccccc" />
        <path
           sodipodi:nodetypes="cccc"
           inkscape:connector-curvature="0"
           id="path1309"
           d="m 386.93141,158.9227 c -1.74465,4.13287 -1.1121,8.34005 0,11.8036 -3.90714,-3.78273 -8.35726,-4.4969 -15.1537,-5.9018 6.79644,-1.4049 11.24656,-2.11907 15.1537,-5.9018 z"
           style="fill:#ffffff;stroke:none;stroke-width:0.5011304;stroke-miterlimit:4;stroke-dasharray:none" />
        <path
           style="fill:#ffffff;stroke:none;stroke-width:0.5011304;stroke-miterlimit:4;stroke-dasharray:none"
           d="m 352.04473,143.57488 c -1.28845,3.59044 -0.12275,5.99183 1.56944,8.21536 1.43065,1.87986 7.52536,5.66876 11.42205,6.2963 -8.28023,-6.03456 -6.87521,-11.70336 -12.99149,-14.51166 z"
           id="path1311"
           inkscape:connector-curvature="0"
           sodipodi:nodetypes="cscc" />
        <path
           sodipodi:nodetypes="ccc"
           inkscape:connector-curvature="0"
           id="path1313"
           d="m 333.32764,118.24442 c -3.05573,2.85245 0.86601,6.30812 2.50993,7.39917 -0.1695,-1.41768 1.73767,-6.12948 -2.50993,-7.39917 z"
           style="fill:#ffffff;stroke:none;stroke-width:0.5011304;stroke-miterlimit:4;stroke-dasharray:none" />
        <path
           sodipodi:nodetypes="ccc"
           inkscape:connector-curvature="0"
           id="path1315"
           d="m 338.91259,149.90411 c -4.19031,-0.16161 -8.25584,0.30068 -12.57093,2.88424 -4.91867,2.61563 -7.84085,3.85867 -16.25338,3.72913"
           style="fill:#000000;stroke:#ff0000;stroke-width:0.5011304;stroke-linecap:butt;stroke-linejoin:miter;stroke-miterlimit:4;stroke-dasharray:none;stroke-opacity:1" />
        <path
           sodipodi:nodetypes="cc"
           inkscape:connector-curvature="0"
           id="path1317"
           d="m 329.92839,145.03766 c 6.03106,-0.16637 6.19744,2.91155 6.86294,4.74166"
           style="fill:#000000;stroke:#ff0000;stroke-width:0.5011304;stroke-linecap:butt;stroke-linejoin:miter;stroke-miterlimit:4;stroke-dasharray:none;stroke-opacity:1" />
        <path
           style="fill:#000000;stroke:#ff0000;stroke-width:0.5011304;stroke-linecap:butt;stroke-linejoin:miter;stroke-miterlimit:4;stroke-dasharray:none;stroke-opacity:1"
           d="m 321.19375,148.40674 c 4.78326,2.82836 8.31871,-0.20796 8.9842,2.37083"
           id="path1319"
           inkscape:connector-curvature="0"
           sodipodi:nodetypes="cc" />
        <path
           sodipodi:nodetypes="cc"
           inkscape:connector-curvature="0"
           id="path1321"
           d="m 315.0795,153.27318 c 3.75931,-0.28895 3.00903,1.27078 7.36206,1.37259"
           style="fill:#000000;stroke:#ff0000;stroke-width:0.5011304;stroke-linecap:butt;stroke-linejoin:miter;stroke-miterlimit:4;stroke-dasharray:none;stroke-opacity:1" />
        <path
           style="fill:#000000;stroke:#ff0000;stroke-width:0.5011304;stroke-linecap:butt;stroke-linejoin:miter;stroke-miterlimit:4;stroke-dasharray:none;stroke-opacity:1"
           d="m 318.82292,159.76177 c 2.63628,-1.03763 3.00903,-2.59742 3.61864,-5.116"
           id="path1323"
           inkscape:connector-curvature="0"
           sodipodi:nodetypes="cc" />
        <path
           sodipodi:nodetypes="cc"
           inkscape:connector-curvature="0"
           id="path1325"
           d="m 327.68234,159.76177 c -0.60802,-4.03236 1.886,-6.46562 2.49561,-8.9842"
           style="fill:#000000;stroke:#ff0000;stroke-width:0.5011304;stroke-linecap:butt;stroke-linejoin:miter;stroke-miterlimit:4;stroke-dasharray:none;stroke-opacity:1" />
        <path
           style="fill:#000000;stroke:#ff0000;stroke-width:0.5011304;stroke-linecap:butt;stroke-linejoin:miter;stroke-miterlimit:4;stroke-dasharray:none;stroke-opacity:1"
           d="m 334.91962,159.76177 c -0.60802,-4.03236 0.0143,-7.46387 1.8717,-9.98245"
           id="path1327"
           inkscape:connector-curvature="0"
           sodipodi:nodetypes="cc" />
        <path
           style="fill:#ffffff;stroke:none;stroke-width:0.5011304;stroke-miterlimit:4;stroke-dasharray:none"
           d="m 442.37584,84.7922 c 1.49623,4.001752 -2.27296,7.472707 -5.34447,8.110542 -3.17467,0.659258 -6.20159,0.901307 -11.5092,2.244747 2.17772,-7.361005 -0.38285,-13.709269 -5.05772,-6.623206 2.62872,-7.46979 0.65679,-11.650881 -3.36541,-6.904631 0.0167,-8.662461 -2.79263,-8.557451 -5.26394,-14.108773 10.47867,1.245769 23.66229,4.917166 30.8609,8.082661 -11.48161,-0.554275 -8.25432,12.81871 -0.32016,9.19866 z"
           id="path1329"
           inkscape:connector-curvature="0"
           sodipodi:nodetypes="cscccccc" />
        <path
           sodipodi:nodetypes="cccccccccccccc"
           inkscape:connector-curvature="0"
           id="path1331"
           d="m 408.64138,109.23664 c 4.0222,-4.74625 4.40593,-14.858936 -3.34031,-9.506743 -0.44266,-2.762636 -0.68837,-6.384722 4.70478,-7.229404 -6.89311,-3.813969 -5.09025,-7.454598 -0.49051,-5.597608 -2.48718,-2.137799 -4.27668,-3.932323 -1.62595,-9.434039 1.94796,-4.762103 -0.22054,-7.262861 -0.20924,-10.237913 -3.48936,-0.323603 -6.09745,-0.205061 -9.06613,-0.137375 0.0113,2.975052 -2.22589,5.613185 -0.27793,10.375288 2.65073,5.501716 0.86123,7.29624 -1.62595,9.434039 4.59974,-1.85699 6.4026,1.783639 -0.49051,5.597608 5.39315,0.844682 5.14744,4.466768 4.70478,7.229404 -7.74624,-5.352193 -7.36251,4.760493 -3.34031,9.506743 2.18913,2.71962 4.38083,6.35396 5.52864,13.24351 1.14781,-6.88955 3.33951,-10.52389 5.52864,-13.24351 z"
           style="fill:#ffffff;stroke:none;stroke-width:0.5011304;stroke-miterlimit:4;stroke-dasharray:none" />
        <path
           style="fill:#ffffff;stroke:none;stroke-width:0.5011304;stroke-miterlimit:4;stroke-dasharray:none"
           d="m 424.36236,113.32277 c -3.59044,-1.28845 -5.99183,-0.12275 -8.21536,1.56944 -1.87986,1.43065 -5.66876,7.52536 -6.2963,11.42205 6.03456,-8.28023 11.70336,-6.87521 14.51166,-12.99149 z"
           id="path1333"
           inkscape:connector-curvature="0"
           sodipodi:nodetypes="cscc" />
        <path
           sodipodi:nodetypes="ccc"
           inkscape:connector-curvature="0"
           id="path1335"
           d="m 449.69282,94.605685 c -2.85245,-3.055733 -6.30812,0.866002 -7.39917,2.509927 1.41768,-0.169498 6.12948,1.73767 7.39917,-2.509927 z"
           style="fill:#ffffff;stroke:none;stroke-width:0.5011304;stroke-miterlimit:4;stroke-dasharray:none" />
        <path
           sodipodi:nodetypes="ccc"
           inkscape:connector-curvature="0"
           id="path1337"
           d="m 418.03313,100.19063 c 0.16161,-4.190305 -0.30068,-8.255835 -2.88424,-12.570925 -2.61563,-4.918672 -3.85867,-7.840854 -3.72913,-16.253382"
           style="fill:#000000;stroke:#ff0000;stroke-width:0.5011304;stroke-linecap:butt;stroke-linejoin:miter;stroke-miterlimit:4;stroke-dasharray:none;stroke-opacity:1" />
        <path
           sodipodi:nodetypes="cc"
           inkscape:connector-curvature="0"
           id="path1340"
           d="m 422.89958,91.206433 c 0.16637,6.031061 -2.91155,6.197435 -4.74166,6.862932"
           style="fill:#000000;stroke:#ff0000;stroke-width:0.5011304;stroke-linecap:butt;stroke-linejoin:miter;stroke-miterlimit:4;stroke-dasharray:none;stroke-opacity:1" />
        <path
           style="fill:#000000;stroke:#ff0000;stroke-width:0.5011304;stroke-linecap:butt;stroke-linejoin:miter;stroke-miterlimit:4;stroke-dasharray:none;stroke-opacity:1"
           d="m 419.5305,82.471793 c -2.82836,4.783255 0.20796,8.318705 -2.37083,8.984202"
           id="path1342"
           inkscape:connector-curvature="0"
           sodipodi:nodetypes="cc" />
        <path
           sodipodi:nodetypes="cc"
           inkscape:connector-curvature="0"
           id="path1344"
           d="m 414.66406,76.357545 c 0.28895,3.759303 -1.27078,3.009023 -1.37259,7.362055"
           style="fill:#000000;stroke:#ff0000;stroke-width:0.5011304;stroke-linecap:butt;stroke-linejoin:miter;stroke-miterlimit:4;stroke-dasharray:none;stroke-opacity:1" />
        <path
           style="fill:#000000;stroke:#ff0000;stroke-width:0.5011304;stroke-linecap:butt;stroke-linejoin:miter;stroke-miterlimit:4;stroke-dasharray:none;stroke-opacity:1"
           d="m 408.17547,80.100962 c 1.03763,2.636278 2.59742,3.009023 5.116,3.618638"
           id="path1346"
           inkscape:connector-curvature="0"
           sodipodi:nodetypes="cc" />
        <path
           sodipodi:nodetypes="cc"
           inkscape:connector-curvature="0"
           id="path1348"
           d="m 408.17547,88.960382 c 4.03236,-0.608017 6.46562,1.885998 8.9842,2.495613"
           style="fill:#000000;stroke:#ff0000;stroke-width:0.5011304;stroke-linecap:butt;stroke-linejoin:miter;stroke-miterlimit:4;stroke-dasharray:none;stroke-opacity:1" />
        <path
           style="fill:#000000;stroke:#ff0000;stroke-width:0.5011304;stroke-linecap:butt;stroke-linejoin:miter;stroke-miterlimit:4;stroke-dasharray:none;stroke-opacity:1"
           d="m 408.17547,96.197655 c 4.03236,-0.608017 7.46387,0.01429 9.98245,1.87171"
           id="path1350"
           inkscape:connector-curvature="0"
           sodipodi:nodetypes="cc" />
        <path
           sodipodi:nodetypes="cscccccc"
           inkscape:connector-curvature="0"
           id="path1353"
           d="m 482.71132,125.5614 c -4.00175,-1.49623 -7.47271,2.27296 -8.11054,5.34447 -0.65926,3.17467 -0.90131,6.20159 -2.24475,11.5092 7.36101,-2.17772 13.70927,0.38285 6.62321,5.05772 7.46979,-2.62872 11.65088,-0.65679 6.90463,3.36541 8.66246,-0.0167 8.55745,2.79263 14.10877,5.26394 -1.24577,-10.47867 -4.91716,-23.66229 -8.08266,-30.8609 0.55428,11.48161 -12.81871,8.25432 -9.19866,0.32016 z"
           style="fill:#ffffff;stroke:none;stroke-width:0.5011304;stroke-miterlimit:4;stroke-dasharray:none" />
        <path
           style="fill:#ffffff;stroke:none;stroke-width:0.5011304;stroke-miterlimit:4;stroke-dasharray:none"
           d="m 458.26688,159.29586 c 4.74625,-4.0222 14.85894,-4.40593 9.50674,3.34031 2.76264,0.44266 6.38472,0.68837 7.22941,-4.70478 3.81397,6.89311 7.4546,5.09025 5.59761,0.49051 2.13779,2.48718 3.93232,4.27668 9.43403,1.62595 4.76211,-1.94796 7.19418,0.22054 10.16923,0.20924 0.52929,3.24145 0.36249,6.6281 0,9.13482 -2.97505,-0.0113 -5.40712,2.1572 -10.16923,0.20924 -5.50171,-2.65073 -7.29624,-0.86123 -9.43403,1.62595 1.85699,-4.59974 -1.78364,-6.4026 -5.59761,0.49051 -0.84469,-5.39315 -4.46677,-5.14744 -7.22941,-4.70478 5.3522,7.74624 -4.76049,7.36251 -9.50674,3.34031 -2.71962,-2.18913 -6.35396,-4.38083 -13.24351,-5.52864 6.88955,-1.14781 10.52389,-3.33951 13.24351,-5.52864 z"
           id="path1355"
           inkscape:connector-curvature="0"
           sodipodi:nodetypes="cccccccccccccc" />
        <path
           sodipodi:nodetypes="cccccccccc"
           inkscape:connector-curvature="0"
           id="path1357"
           d="m 488.55712,119.21777 c -2.53389,-1.5995 -8.84822,-4.10735 -12.37505,0.38571 -0.3842,-2.12133 -0.23759,-4.12586 -3.08125,-5.87387 -3.34877,1.31188 -3.37184,3.30305 -4.45058,5.7845 -4.37401,-6.71665 -11.08426,-7.61797 -13.44935,-6.99463 0.84021,-2.58194 -0.0611,-9.29219 -6.77776,-13.6662 2.48145,-1.07874 4.47262,-1.10181 5.7845,-4.45058 -1.74801,-2.84366 -3.75254,-2.69705 -5.87387,-3.08125 4.49306,-3.52683 1.98521,-9.84116 0.38571,-12.37505 18.37783,10.30248 31.93552,23.8802 39.83765,40.27137 z"
           style="fill:#ffffff;stroke:none;stroke-width:0.5011304;stroke-miterlimit:4;stroke-dasharray:none" />
        <path
           style="fill:#ffffff;stroke:none;stroke-width:0.5011304;stroke-miterlimit:4;stroke-dasharray:none"
           d="m 450.91537,141.48417 c 1.07874,-2.48145 3.30764,-2.79619 6.03878,-2.96104 2.84366,1.74801 0.49122,7.6348 0.87542,9.75613 6.79146,-1.75783 11.87052,-22.10237 -0.68347,-27.82623 2.1067,8.24221 -12.48617,8.29356 -7.72628,-2.15247 -10.22917,4.54303 -10.17782,-10.04984 -1.93561,-7.94314 -5.72386,-12.55399 -26.0684,-7.47493 -27.82623,-0.68347 2.12133,0.3842 8.00812,-1.96824 9.75613,0.87542 -0.16485,2.73114 -0.47959,4.96004 -2.96104,6.03878 10.33421,-0.83175 14.14723,8.96666 10.70414,13.97502 4.7915,-3.22623 14.58991,0.58679 13.75816,10.921 z"
           id="path1359"
           inkscape:connector-curvature="0"
           sodipodi:nodetypes="ccccccccccc" />
        <path
           sodipodi:nodetypes="ccccccccccc"
           inkscape:connector-curvature="0"
           id="path1361"
           d="m 440.20533,137.83497 c 9.28937,5.19446 -1.08369,23.6861 -14.66911,16.53238 4.73333,0.52567 10.17393,-1.21416 10.77136,-7.0209 0.44526,-6.80557 -7.69527,-9.22606 -9.56811,-4.09761 6.91984,2.37136 -0.67274,13.11682 -8.2877,6.01977 -6.88019,-7.83182 3.86527,-15.4244 6.23663,-8.50456 5.12845,-1.87284 2.70796,-10.01337 -4.09761,-9.56811 -5.80674,0.59743 -7.54657,6.03803 -7.0209,10.77136 -7.15372,-13.58542 11.33792,-23.95848 16.53238,-14.66911 -4.71288,-1.0479 -3.6172,10.72151 4.00909,6.31083 -4.62754,7.84315 7.14187,8.93883 6.09397,4.22595 z"
           style="fill:#ffffff;stroke:none;stroke-width:0.5011304;stroke-miterlimit:4;stroke-dasharray:none" />
        <path
           sodipodi:nodetypes="cscc"
           inkscape:connector-curvature="0"
           id="path1365"
           d="m 454.18075,143.57488 c 1.28845,3.59044 0.12275,5.99183 -1.56944,8.21536 -1.43065,1.87986 -7.52536,5.66876 -11.42205,6.2963 8.28023,-6.03456 6.87521,-11.70336 12.99149,-14.51166 z"
           style="fill:#ffffff;stroke:none;stroke-width:0.5011304;stroke-miterlimit:4;stroke-dasharray:none" />
        <path
           style="fill:#ffffff;stroke:none;stroke-width:0.5011304;stroke-miterlimit:4;stroke-dasharray:none"
           d="m 472.89784,118.24442 c 3.05573,2.85245 -0.86601,6.30812 -2.50993,7.39917 0.1695,-1.41768 -1.73767,-6.12948 2.50993,-7.39917 z"
           id="path1367"
           inkscape:connector-curvature="0"
           sodipodi:nodetypes="ccc" />
        <path
           style="fill:#000000;stroke:#ff0000;stroke-width:0.5011304;stroke-linecap:butt;stroke-linejoin:miter;stroke-miterlimit:4;stroke-dasharray:none;stroke-opacity:1"
           d="m 467.31289,149.90411 c 4.19031,-0.16161 8.25584,0.30068 12.57093,2.88424 4.91867,2.61563 7.84085,3.85867 16.25338,3.72913"
           id="path1369"
           inkscape:connector-curvature="0"
           sodipodi:nodetypes="ccc" />
        <path
           style="fill:#000000;stroke:#ff0000;stroke-width:0.5011304;stroke-linecap:butt;stroke-linejoin:miter;stroke-miterlimit:4;stroke-dasharray:none;stroke-opacity:1"
           d="m 476.29709,145.03766 c -6.03106,-0.16637 -6.19744,2.91155 -6.86294,4.74166"
           id="path1371"
           inkscape:connector-curvature="0"
           sodipodi:nodetypes="cc" />
        <path
           sodipodi:nodetypes="cc"
           inkscape:connector-curvature="0"
           id="path1373"
           d="m 485.03173,148.40674 c -4.78326,2.82836 -8.31871,-0.20796 -8.9842,2.37083"
           style="fill:#000000;stroke:#ff0000;stroke-width:0.5011304;stroke-linecap:butt;stroke-linejoin:miter;stroke-miterlimit:4;stroke-dasharray:none;stroke-opacity:1" />
        <path
           style="fill:#000000;stroke:#ff0000;stroke-width:0.5011304;stroke-linecap:butt;stroke-linejoin:miter;stroke-miterlimit:4;stroke-dasharray:none;stroke-opacity:1"
           d="m 491.14598,153.27318 c -3.75931,-0.28895 -3.00903,1.27078 -7.36206,1.37259"
           id="path1375"
           inkscape:connector-curvature="0"
           sodipodi:nodetypes="cc" />
        <path
           sodipodi:nodetypes="cc"
           inkscape:connector-curvature="0"
           id="path1377"
           d="m 487.40256,159.76177 c -2.63628,-1.03763 -3.00903,-2.59742 -3.61864,-5.116"
           style="fill:#000000;stroke:#ff0000;stroke-width:0.5011304;stroke-linecap:butt;stroke-linejoin:miter;stroke-miterlimit:4;stroke-dasharray:none;stroke-opacity:1" />
        <path
           style="fill:#000000;stroke:#ff0000;stroke-width:0.5011304;stroke-linecap:butt;stroke-linejoin:miter;stroke-miterlimit:4;stroke-dasharray:none;stroke-opacity:1"
           d="m 478.54314,159.76177 c 0.60802,-4.03236 -1.886,-6.46562 -2.49561,-8.9842"
           id="path1379"
           inkscape:connector-curvature="0"
           sodipodi:nodetypes="cc" />
        <path
           sodipodi:nodetypes="cc"
           inkscape:connector-curvature="0"
           id="path1381"
           d="m 471.30586,159.76177 c 0.60802,-4.03236 -0.0143,-7.46387 -1.8717,-9.98245"
           style="fill:#000000;stroke:#ff0000;stroke-width:0.5011304;stroke-linecap:butt;stroke-linejoin:miter;stroke-miterlimit:4;stroke-dasharray:none;stroke-opacity:1" />
      </g>
    </g>
  </g>
</svg>
